<svg width="20" height="21" viewBox="0 0 20 21" fill="none" xmlns="http://www.w3.org/2000/svg">
<path d="M10 0.5C4.477 0.5 0 4.977 0 10.5C0 16.023 4.477 20.5 10 20.5C15.523 20.5 20 16.023 20 10.5C20 4.977 15.523 0.5 10 0.5ZM10 15.5C9.448 15.5 9 15.052 9 14.5V10.5C9 9.948 9.448 9.5 10 9.5C10.552 9.5 11 9.948 11 10.5V14.5C11 15.052 10.552 15.5 10 15.5ZM10.5 7.5H9.5C9.224 7.5 9 7.276 9 7V6C9 5.724 9.224 5.5 9.5 5.5H10.5C10.776 5.5 11 5.724 11 6V7C11 7.276 10.776 7.5 10.5 7.5Z" fill="white"/>
</svg>
