<svg width="55" height="33" viewBox="0 0 55 33" fill="none" xmlns="http://www.w3.org/2000/svg">
<path d="M12.7009 1.39709V1.39697L12.6896 1.39722C10.1553 1.45446 8.55385 2.37525 7.756 3.93399C6.98607 5.43819 7.03381 7.41408 7.467 9.44669C7.48872 9.54858 7.48149 9.67884 7.43812 9.85654C7.40493 9.99255 7.36064 10.1214 7.30989 10.269C7.29124 10.3233 7.27172 10.3801 7.25156 10.4407C7.17212 10.6795 7.13077 10.9606 7.15748 11.2792L7.15855 11.2919L7.16025 11.3045C7.23185 11.8334 7.36313 12.2449 7.53497 12.5577C7.64599 12.7598 7.79884 12.9694 7.92973 13.1489C7.96328 13.1949 7.99538 13.239 8.02497 13.2804C8.18796 13.5085 8.29851 13.687 8.34953 13.8447C8.54772 14.457 8.83953 15.0343 9.13783 15.4611L9.13781 15.4611L9.1405 15.4649C9.34387 15.7502 9.43968 16.1498 9.43968 16.6064C9.43968 16.6579 9.43976 16.6986 9.43982 16.7317C9.43989 16.7697 9.43994 16.7979 9.43984 16.8214C9.43976 16.8423 9.43955 16.854 9.43931 16.8615L9.43905 16.8675L9.43901 16.8682L9.43901 16.8682C9.43872 16.8713 9.43857 16.8722 9.43651 16.8859C9.43534 16.8936 9.43356 16.9054 9.43079 16.924C9.42429 16.9675 9.41553 17.0292 9.40365 17.1285C9.39898 17.1676 9.39287 17.1862 9.39054 17.1919C9.27816 17.4637 9.14506 17.8916 9.3162 18.3288C9.63715 19.1485 10.5602 20.788 12.752 20.788C14.9499 20.788 15.86 19.0993 16.1613 18.3163C16.3293 17.8796 16.1878 17.4575 16.0653 17.1902C16.0623 17.1836 16.0548 17.1625 16.0504 17.1193C16.0312 16.9279 16.0152 16.8243 16.0072 16.7724C16.0051 16.7588 16.0036 16.7487 16.0026 16.7415C15.9992 16.715 15.9962 16.6835 15.9962 16.436C15.9962 16.116 16.1191 15.8224 16.318 15.5251C16.6246 15.085 16.9086 14.4667 17.0983 13.8372C17.1421 13.6916 17.2463 13.5279 17.413 13.3082C17.4417 13.2705 17.4732 13.23 17.5063 13.1873C17.6416 13.0131 17.8051 12.8027 17.9214 12.5945C18.1033 12.2689 18.2274 11.8372 18.278 11.2829L18.2784 11.2792C18.2961 11.0678 18.2887 10.8714 18.2605 10.6915C18.2381 10.5488 18.2063 10.4032 18.1767 10.2702C18.174 10.2582 18.1714 10.2463 18.1688 10.2345C18.1411 10.1104 18.1156 9.9957 18.095 9.88192C18.0488 9.6261 18.0415 9.44154 18.0767 9.30418C18.3329 8.30284 18.5616 6.87702 18.3669 5.58139C18.1699 4.27013 17.5144 2.99754 15.9376 2.55435C15.7501 2.50166 15.557 2.37516 15.3525 2.19197C14.727 1.63162 13.7609 1.39709 12.7009 1.39709ZM17.9919 18.5832C17.1642 18.2301 16.224 18.6139 15.7576 19.2879C15.1767 20.1273 14.2202 20.8788 12.752 20.8788C11.2777 20.8788 10.3226 20.1384 9.73707 19.3024C9.26481 18.6283 8.31755 18.2541 7.49258 18.6181C7.24844 18.7258 6.98511 18.8348 6.71021 18.9487C5.81106 19.321 4.7882 19.7446 3.90851 20.3407C2.7235 21.1437 1.7338 22.2935 1.45559 24.1228C1.31865 25.0232 2.07413 25.6968 2.87769 25.6968H22.6263C23.4314 25.6968 24.1821 25.0234 24.0528 24.1263C23.7822 22.2495 22.7965 21.0832 21.6031 20.2784C20.7132 19.6782 19.6756 19.2631 18.764 18.8985C18.4931 18.7901 18.2333 18.6862 17.9919 18.5832Z" fill="#F9F9F9" stroke="url(#paint0_linear_1_1081)"/>
<path d="M42.197 1.39709V1.39697L42.1857 1.39722C39.6513 1.45446 38.0499 2.37525 37.2521 3.93399C36.4822 5.43819 36.5299 7.41408 36.9631 9.44669C36.9848 9.54858 36.9776 9.67884 36.9342 9.85654C36.901 9.99255 36.8567 10.1214 36.806 10.269C36.7873 10.3233 36.7678 10.3801 36.7477 10.4407C36.6682 10.6795 36.6269 10.9606 36.6536 11.2792L36.6546 11.2919L36.6563 11.3045C36.7279 11.8334 36.8592 12.2449 37.0311 12.5577C37.1421 12.7598 37.2949 12.9694 37.4258 13.1489C37.4594 13.1949 37.4915 13.239 37.5211 13.2804C37.6841 13.5085 37.7946 13.687 37.8456 13.8447C38.0438 14.457 38.3356 15.0343 38.6339 15.4611L38.6339 15.4611L38.6366 15.4649C38.84 15.7502 38.9358 16.1498 38.9358 16.6064C38.9358 16.6579 38.9359 16.6986 38.9359 16.7317C38.936 16.7697 38.936 16.7979 38.9359 16.8214C38.9358 16.8423 38.9356 16.854 38.9354 16.8615L38.9351 16.8675L38.9351 16.8682L38.9351 16.8682C38.9348 16.8713 38.9347 16.8722 38.9326 16.8859C38.9314 16.8936 38.9297 16.9054 38.9269 16.924C38.9204 16.9675 38.9116 17.0292 38.8997 17.1285C38.8951 17.1676 38.889 17.1862 38.8866 17.1919C38.7743 17.4637 38.6411 17.8916 38.8123 18.3288C39.1332 19.1485 40.0563 20.788 42.2481 20.788C44.446 20.788 45.3561 19.0993 45.6574 18.3163C45.8254 17.8796 45.6839 17.4575 45.5614 17.1902C45.5583 17.1836 45.5509 17.1625 45.5465 17.1193C45.5273 16.9279 45.5113 16.8243 45.5033 16.7724C45.5012 16.7588 45.4997 16.7487 45.4987 16.7415C45.4953 16.715 45.4923 16.6835 45.4923 16.436C45.4923 16.116 45.6152 15.8224 45.8141 15.5251C46.1207 15.085 46.4047 14.4667 46.5944 13.8372C46.6382 13.6916 46.7424 13.5279 46.9091 13.3082C46.9378 13.2705 46.9692 13.23 47.0024 13.1873C47.1377 13.0131 47.3012 12.8027 47.4175 12.5945C47.5994 12.2689 47.7235 11.8372 47.7741 11.2829L47.7745 11.2792C47.7922 11.0678 47.7848 10.8714 47.7566 10.6915C47.7342 10.5488 47.7024 10.4032 47.6728 10.2702C47.6701 10.2582 47.6675 10.2463 47.6649 10.2345C47.6372 10.1104 47.6117 9.9957 47.5911 9.88192C47.5449 9.6261 47.5376 9.44154 47.5728 9.30418C47.829 8.30284 48.0577 6.87702 47.863 5.58139C47.666 4.27013 47.0105 2.99754 45.4337 2.55435C45.2462 2.50166 45.0531 2.37516 44.8486 2.19197C44.2231 1.63162 43.257 1.39709 42.197 1.39709ZM47.488 18.5832C46.6603 18.2301 45.7201 18.6139 45.2537 19.2879C44.6728 20.1273 43.7163 20.8788 42.2481 20.8788C40.7738 20.8788 39.8187 20.1384 39.2332 19.3024C38.7609 18.6283 37.8136 18.2541 36.9887 18.6181C36.7445 18.7258 36.4812 18.8348 36.2063 18.9487C35.3072 19.321 34.2843 19.7446 33.4046 20.3407C32.2196 21.1437 31.2299 22.2935 30.9517 24.1228C30.8147 25.0232 31.5702 25.6968 32.3738 25.6968H52.1224C52.9275 25.6968 53.6782 25.0234 53.5489 24.1263C53.2783 22.2495 52.2926 21.0832 51.0992 20.2784C50.2093 19.6782 49.1716 19.2631 48.2601 18.8985C47.9892 18.7901 47.7294 18.6862 47.488 18.5832Z" fill="#F9F9F9" stroke="url(#paint1_linear_1_1081)"/>
<path d="M27.4489 7.30322V7.3031L27.4376 7.30335C24.9033 7.36059 23.3019 8.28138 22.5041 9.84012C21.7341 11.3443 21.7819 13.3202 22.2151 15.3528C22.2368 15.4547 22.2295 15.585 22.1862 15.7627C22.153 15.8987 22.1087 16.0275 22.0579 16.1752C22.0393 16.2294 22.0198 16.2862 21.9996 16.3468C21.9202 16.5856 21.8788 16.8667 21.9055 17.1853L21.9066 17.198L21.9083 17.2106C21.9799 17.7396 22.1112 18.1511 22.283 18.4639C22.394 18.6659 22.5469 18.8755 22.6778 19.0551C22.7113 19.1011 22.7434 19.1451 22.773 19.1865C22.936 19.4147 23.0466 19.5932 23.0976 19.7508C23.2958 20.3631 23.5876 20.9404 23.8859 21.3672L23.8859 21.3672L23.8886 21.371C24.0919 21.6563 24.1877 22.0559 24.1877 22.5125C24.1877 22.5641 24.1878 22.6047 24.1879 22.6379C24.1879 22.6758 24.188 22.704 24.1879 22.7275C24.1878 22.7484 24.1876 22.7602 24.1874 22.7676L24.1871 22.7736L24.1871 22.7743L24.1871 22.7743C24.1868 22.7774 24.1866 22.7784 24.1846 22.792C24.1834 22.7998 24.1816 22.8116 24.1788 22.8301C24.1723 22.8736 24.1636 22.9354 24.1517 23.0346C24.147 23.0737 24.1409 23.0924 24.1386 23.098C24.0262 23.3698 23.8931 23.7977 24.0642 24.2349C24.3852 25.0547 25.3082 26.6941 27.5001 26.6941C29.6979 26.6941 30.6081 25.0054 30.9093 24.2224C31.0774 23.7857 30.9358 23.3636 30.8133 23.0963C30.8103 23.0897 30.8028 23.0686 30.7985 23.0255C30.7792 22.8341 30.7633 22.7304 30.7553 22.6785C30.7532 22.6649 30.7516 22.6548 30.7507 22.6477C30.7473 22.6211 30.7442 22.5896 30.7442 22.3421C30.7442 22.0221 30.8672 21.7286 31.066 21.4312C31.3727 20.9911 31.6566 20.3728 31.8463 19.7433C31.8902 19.5977 31.9943 19.434 32.1611 19.2144C32.1897 19.1766 32.2212 19.1361 32.2544 19.0934C32.3897 18.9192 32.5531 18.7088 32.6694 18.5007C32.8514 18.175 32.9754 17.7433 33.0261 17.189L33.0264 17.1853C33.0441 16.974 33.0367 16.7776 33.0085 16.5976C32.9862 16.4549 32.9543 16.3093 32.9248 16.1763C32.9221 16.1643 32.9194 16.1524 32.9168 16.1406C32.8892 16.0165 32.8636 15.9018 32.8431 15.788C32.7968 15.5322 32.7896 15.3477 32.8247 15.2103C33.081 14.209 33.3096 12.7831 33.115 11.4875C32.9179 10.1763 32.2625 8.90367 30.6856 8.46048C30.4982 8.40779 30.305 8.28129 30.1005 8.0981C29.475 7.53775 28.509 7.30322 27.4489 7.30322ZM32.7399 24.4893C31.9123 24.1362 30.9721 24.52 30.5056 25.194C29.9247 26.0334 28.9682 26.785 27.5001 26.785C26.0258 26.785 25.0707 26.0445 24.4851 25.2086C24.0129 24.5344 23.0656 24.1602 22.2406 24.5242C21.9965 24.6319 21.7332 24.741 21.4583 24.8548C20.5591 25.2271 19.5363 25.6507 18.6566 26.2468C17.4716 27.0498 16.4818 28.1997 16.2036 30.0289C16.0667 30.9293 16.8222 31.6029 17.6257 31.6029H37.3744C38.1794 31.6029 38.9301 30.9296 38.8008 30.0325C38.5302 28.1556 37.5445 26.9893 36.3512 26.1845C35.4612 25.5844 34.4236 25.1693 33.512 24.8046C33.2411 24.6962 32.9814 24.5923 32.7399 24.4893Z" fill="#F9F9F9" stroke="url(#paint2_linear_1_1081)"/>
<defs>
<linearGradient id="paint0_linear_1_1081" x1="1.8777" y1="0.53321" x2="3.08713" y2="29.3261" gradientUnits="userSpaceOnUse">
<stop offset="0.00362408" stop-color="#134E5E"/>
<stop offset="0.0504168" stop-color="#15505F"/>
<stop offset="0.0923384" stop-color="#17525F"/>
<stop offset="0.13116" stop-color="#1A5560"/>
<stop offset="0.168653" stop-color="#1D5861"/>
<stop offset="0.20659" stop-color="#205C63"/>
<stop offset="0.24674" stop-color="#246064"/>
<stop offset="0.290876" stop-color="#286566"/>
<stop offset="0.340768" stop-color="#2E6B68"/>
<stop offset="0.398189" stop-color="#34716A"/>
<stop offset="0.464909" stop-color="#3B796D"/>
<stop offset="0.5427" stop-color="#448270"/>
<stop offset="0.633334" stop-color="#4D8C73"/>
<stop offset="0.73858" stop-color="#589777"/>
<stop offset="0.860212" stop-color="#64A47B"/>
<stop offset="1" stop-color="#71B280"/>
</linearGradient>
<linearGradient id="paint1_linear_1_1081" x1="31.3738" y1="0.53321" x2="32.5832" y2="29.3261" gradientUnits="userSpaceOnUse">
<stop offset="0.00362408" stop-color="#134E5E"/>
<stop offset="0.0504168" stop-color="#15505F"/>
<stop offset="0.0923384" stop-color="#17525F"/>
<stop offset="0.13116" stop-color="#1A5560"/>
<stop offset="0.168653" stop-color="#1D5861"/>
<stop offset="0.20659" stop-color="#205C63"/>
<stop offset="0.24674" stop-color="#246064"/>
<stop offset="0.290876" stop-color="#286566"/>
<stop offset="0.340768" stop-color="#2E6B68"/>
<stop offset="0.398189" stop-color="#34716A"/>
<stop offset="0.464909" stop-color="#3B796D"/>
<stop offset="0.5427" stop-color="#448270"/>
<stop offset="0.633334" stop-color="#4D8C73"/>
<stop offset="0.73858" stop-color="#589777"/>
<stop offset="0.860212" stop-color="#64A47B"/>
<stop offset="1" stop-color="#71B280"/>
</linearGradient>
<linearGradient id="paint2_linear_1_1081" x1="16.6257" y1="6.43934" x2="17.8352" y2="35.2322" gradientUnits="userSpaceOnUse">
<stop offset="0.00362408" stop-color="#134E5E"/>
<stop offset="0.0504168" stop-color="#15505F"/>
<stop offset="0.0923384" stop-color="#17525F"/>
<stop offset="0.13116" stop-color="#1A5560"/>
<stop offset="0.168653" stop-color="#1D5861"/>
<stop offset="0.20659" stop-color="#205C63"/>
<stop offset="0.24674" stop-color="#246064"/>
<stop offset="0.290876" stop-color="#286566"/>
<stop offset="0.340768" stop-color="#2E6B68"/>
<stop offset="0.398189" stop-color="#34716A"/>
<stop offset="0.464909" stop-color="#3B796D"/>
<stop offset="0.5427" stop-color="#448270"/>
<stop offset="0.633334" stop-color="#4D8C73"/>
<stop offset="0.73858" stop-color="#589777"/>
<stop offset="0.860212" stop-color="#64A47B"/>
<stop offset="1" stop-color="#71B280"/>
</linearGradient>
</defs>
</svg>
