<svg width="17" height="16" viewBox="0 0 17 16" fill="none" xmlns="http://www.w3.org/2000/svg">
<path d="M7.7093 2.0814H2.49096C2.09553 2.0814 1.7163 2.23848 1.43669 2.51809C1.15708 2.7977 1 3.17693 1 3.57235V14.009C1 14.4045 1.15708 14.7837 1.43669 15.0633C1.7163 15.3429 2.09553 15.5 2.49096 15.5H12.9276C13.3231 15.5 13.7023 15.3429 13.9819 15.0633C14.2615 14.7837 14.4186 14.4045 14.4186 14.009V8.7907M13.3004 0.963181C13.597 0.666611 13.9992 0.5 14.4186 0.5C14.838 0.5 15.2402 0.666611 15.5368 0.963181C15.8334 1.25975 16 1.66198 16 2.0814C16 2.50081 15.8334 2.90304 15.5368 3.19961L8.45478 10.2817L5.47287 11.0271L6.21835 8.04522L13.3004 0.963181Z" stroke="#292828" stroke-opacity="0.95" stroke-linecap="round" stroke-linejoin="round"/>
</svg>
