<svg width="12" height="13" viewBox="0 0 12 13" fill="none" xmlns="http://www.w3.org/2000/svg">
<path d="M11.3144 0.500278C11.2896 0.501062 11.2648 0.503235 11.2402 0.506784H7.99581C7.90752 0.505536 7.81985 0.521847 7.73792 0.554771C7.65598 0.587695 7.58141 0.636575 7.51853 0.698569C7.45565 0.760564 7.40571 0.834437 7.37163 0.915896C7.33755 0.997354 7.32 1.08477 7.32 1.17307C7.32 1.26137 7.33755 1.34879 7.37163 1.43025C7.40571 1.51171 7.45565 1.58558 7.51853 1.64758C7.58141 1.70957 7.65598 1.75845 7.73792 1.79138C7.81985 1.8243 7.90752 1.84061 7.99581 1.83936H9.71887L3.5268 8.03117C3.46285 8.09257 3.41179 8.16611 3.37662 8.24748C3.34145 8.32885 3.32287 8.41643 3.32197 8.50507C3.32107 8.59371 3.33786 8.68165 3.37137 8.76372C3.40488 8.84579 3.45443 8.92035 3.51711 8.98303C3.5798 9.04572 3.65436 9.09526 3.73644 9.12877C3.81851 9.16228 3.90645 9.17907 3.9951 9.17817C4.08375 9.17727 4.17132 9.15869 4.2527 9.12352C4.33407 9.08835 4.40761 9.0373 4.46901 8.97335L10.6611 2.78154V4.50452C10.6598 4.59281 10.6761 4.68047 10.7091 4.76241C10.742 4.84434 10.7909 4.91891 10.8529 4.98179C10.9149 5.04467 10.9887 5.09459 11.0702 5.12867C11.1517 5.16275 11.2391 5.1803 11.3274 5.1803C11.4157 5.1803 11.5031 5.16275 11.5846 5.12867C11.666 5.09459 11.7399 5.04467 11.8019 4.98179C11.8639 4.91891 11.9128 4.84434 11.9457 4.76241C11.9787 4.68047 11.995 4.59281 11.9937 4.50452V1.25766C12.007 1.16173 11.9992 1.06406 11.9709 0.971457C11.9425 0.87885 11.8944 0.793529 11.8297 0.721436C11.765 0.649343 11.6854 0.59221 11.5964 0.554015C11.5074 0.515821 11.4112 0.497483 11.3144 0.500278ZM1.33264 0.506784C0.604308 0.506784 0 1.11107 0 1.83936V11.1674C0 11.8957 0.604308 12.5 1.33264 12.5H10.6611C11.3894 12.5 11.9937 11.8957 11.9937 11.1674V7.16968C11.995 7.08139 11.9787 6.99373 11.9457 6.9118C11.9128 6.82987 11.8639 6.7553 11.8019 6.69242C11.7399 6.62954 11.666 6.57961 11.5846 6.54553C11.5031 6.51145 11.4157 6.4939 11.3274 6.4939C11.2391 6.4939 11.1517 6.51145 11.0702 6.54553C10.9887 6.57961 10.9149 6.62954 10.8529 6.69242C10.7909 6.7553 10.742 6.82987 10.7091 6.9118C10.6761 6.99373 10.6598 7.08139 10.6611 7.16968V11.1674H1.33264V1.83936H5.33054C5.41884 1.84061 5.5065 1.8243 5.58843 1.79138C5.67037 1.75845 5.74494 1.70957 5.80783 1.64758C5.87071 1.58558 5.92064 1.51171 5.95472 1.43025C5.9888 1.34879 6.00635 1.26137 6.00635 1.17307C6.00635 1.08477 5.9888 0.997354 5.95472 0.915896C5.92064 0.834437 5.87071 0.760564 5.80783 0.698569C5.74494 0.636575 5.67037 0.587695 5.58843 0.554771C5.5065 0.521847 5.41884 0.505536 5.33054 0.506784H1.33264Z" fill="#292828" fill-opacity="0.8"/>
</svg>
