<svg width="20" height="20" viewBox="0 0 20 20" fill="none" xmlns="http://www.w3.org/2000/svg">
<path d="M10.0006 0.405029C9.91356 0.405029 9.8269 0.434125 9.7529 0.493173L0.5529 8.06444C0.3809 8.20784 0.348932 8.4728 0.484932 8.65837C0.620932 8.83974 0.872213 8.87344 1.04821 8.73004L1.60056 8.27532V19.3633C1.60056 19.5952 1.78056 19.785 2.00056 19.785H7.60056V12.1932H12.4006V19.785H18.0006C18.2206 19.785 18.4006 19.5952 18.4006 19.3633V8.27532L18.9529 8.73004C19.0289 8.78909 19.1126 8.81901 19.2006 8.81901C19.3206 8.81901 19.4362 8.76382 19.5162 8.65837C19.6522 8.4728 19.6202 8.20784 19.4482 8.06444L10.2482 0.493173C10.1742 0.434125 10.0876 0.405029 10.0006 0.405029ZM14.0006 2.07069V2.51388L16.4006 4.48763V2.07069H14.0006Z" fill="white"/>
</svg>
