<svg width="28" height="28" viewBox="0 0 28 28" fill="none" xmlns="http://www.w3.org/2000/svg">
<path d="M18 11.897C18 10.8635 17.5786 9.87225 16.8284 9.14141C16.0783 8.41058 15.0609 8 14 8C12.9391 8 11.9217 8.41058 11.1716 9.14141C10.4214 9.87225 10 10.8635 10 11.897C10 16.4436 8 17.7426 8 17.7426H20C20 17.7426 18 16.4436 18 11.897Z" stroke="#292828" stroke-width="1.5" stroke-linecap="round" stroke-linejoin="round"/>
<path d="M15.1524 19.3525C15.0352 19.5494 14.8669 19.7128 14.6645 19.8264C14.4621 19.94 14.2326 19.9997 13.999 19.9997C13.7655 19.9997 13.536 19.94 13.3336 19.8264C13.1311 19.7128 12.9629 19.5494 12.8457 19.3525" stroke="#292828" stroke-width="1.5" stroke-linecap="round" stroke-linejoin="round"/>
<path d="M14 27C21.1797 27 27 21.1797 27 14C27 6.8203 21.1797 1 14 1C6.8203 1 1 6.8203 1 14C1 21.1797 6.8203 27 14 27Z" stroke="#292828" stroke-width="1.5" stroke-linecap="round" stroke-linejoin="round"/>
</svg>
