<svg width="24" height="25" viewBox="0 0 24 25" fill="none" xmlns="http://www.w3.org/2000/svg">
<path d="M12.0077 0.5V0.499878L11.9966 0.500122C9.44906 0.556386 7.8345 1.45911 7.0262 2.99631C6.24514 4.48168 6.29083 6.43227 6.72502 8.43601C6.74734 8.53901 6.73995 8.67107 6.69546 8.85237C6.66247 8.98677 6.61962 9.11218 6.57063 9.25552C6.54995 9.31603 6.52819 9.37974 6.50561 9.44866C6.42916 9.68202 6.39021 9.95499 6.41661 10.2629L6.41772 10.2759L6.41951 10.2887C6.49226 10.8143 6.62595 11.2233 6.80114 11.534C6.91338 11.733 7.06674 11.9393 7.19818 12.1161C7.23264 12.1624 7.26559 12.2067 7.2959 12.2484C7.45991 12.4737 7.57121 12.6502 7.62328 12.8068C7.8237 13.4096 8.11755 13.9774 8.41783 14.3975L8.41782 14.3975L8.42057 14.4013C8.62431 14.6808 8.72035 15.072 8.72035 15.5201C8.72035 15.5711 8.72043 15.6112 8.72049 15.644C8.72056 15.6813 8.72061 15.709 8.72052 15.7322C8.72033 15.7747 8.71954 15.779 8.71975 15.7769C8.71979 15.7765 8.71978 15.7767 8.71958 15.7783C8.71939 15.7797 8.71905 15.7822 8.71844 15.7863L8.71159 15.8309C8.70502 15.8739 8.69616 15.935 8.68416 16.033C8.6795 16.0711 8.6736 16.088 8.67194 16.0919L8.67194 16.0919C8.5581 16.3612 8.42203 16.7901 8.59726 17.2274C8.92411 18.0431 9.85706 19.6544 12.0593 19.6544C14.2673 19.6544 15.1874 17.995 15.4945 17.2153C15.6667 16.7781 15.522 16.3548 15.3978 16.0898C15.3956 16.0851 15.3884 16.066 15.3841 16.0241L14.8867 16.0753L15.3841 16.0241C15.3646 15.8348 15.3483 15.7315 15.3403 15.6807C15.3382 15.6676 15.3367 15.6579 15.3358 15.6512C15.3326 15.6263 15.3294 15.5963 15.3294 15.3519C15.3294 15.0409 15.4516 14.7539 15.6522 14.4606C15.961 14.0272 16.247 13.419 16.4388 12.7993C16.4836 12.6547 16.5882 12.4928 16.7558 12.2761C16.7852 12.2381 16.8176 12.1972 16.8518 12.154C16.9875 11.9826 17.1512 11.7758 17.2688 11.5712C17.4547 11.2475 17.5813 10.8179 17.6328 10.2667L17.6332 10.2629C17.6503 10.0631 17.6444 9.87663 17.619 9.7047C17.5975 9.55904 17.5659 9.41064 17.5362 9.27502C17.5324 9.25724 17.5285 9.23967 17.5247 9.22229C17.4983 9.10191 17.4738 8.99039 17.4538 8.87918C17.4068 8.61809 17.3994 8.43059 17.4355 8.29158C17.6929 7.29929 17.9203 5.89223 17.7194 4.61465C17.5154 3.31709 16.846 2.07058 15.2618 1.63933C15.0767 1.58894 14.8851 1.4653 14.6794 1.28461C14.0494 0.731263 13.0763 0.5 12.0077 0.5ZM17.3192 17.4539C16.4978 17.1099 15.5721 17.4891 15.1061 18.1509C14.5217 18.9807 13.5531 19.7312 12.0593 19.7312C10.5591 19.7312 9.59184 18.9916 9.00273 18.1648C8.53102 17.5029 7.59851 17.1333 6.77991 17.4879C6.52685 17.5976 6.25303 17.7084 5.96691 17.8243C5.0645 18.1898 4.0396 18.6048 3.15691 19.1863C1.95794 19.9762 0.949178 21.1105 0.663027 22.9234C0.520517 23.8263 1.27965 24.5 2.08203 24.5H22.0366C22.8406 24.5 23.5947 23.8265 23.4601 22.9271C23.1818 21.067 22.177 19.9166 20.9696 19.1251C20.0765 18.5396 19.0367 18.1328 18.1217 17.7748C17.8397 17.6645 17.5695 17.5588 17.3192 17.4539Z" fill="#F9F9F9" stroke="url(#paint0_linear_1_1078)"/>
<defs>
<linearGradient id="paint0_linear_1_1078" x1="1.08204" y1="-0.346342" x2="2.2496" y2="28.0784" gradientUnits="userSpaceOnUse">
<stop offset="0.00362408" stop-color="#134E5E"/>
<stop offset="0.0504168" stop-color="#15505F"/>
<stop offset="0.0923384" stop-color="#17525F"/>
<stop offset="0.13116" stop-color="#1A5560"/>
<stop offset="0.168653" stop-color="#1D5861"/>
<stop offset="0.20659" stop-color="#205C63"/>
<stop offset="0.24674" stop-color="#246064"/>
<stop offset="0.290876" stop-color="#286566"/>
<stop offset="0.340768" stop-color="#2E6B68"/>
<stop offset="0.398189" stop-color="#34716A"/>
<stop offset="0.464909" stop-color="#3B796D"/>
<stop offset="0.5427" stop-color="#448270"/>
<stop offset="0.633334" stop-color="#4D8C73"/>
<stop offset="0.73858" stop-color="#589777"/>
<stop offset="0.860212" stop-color="#64A47B"/>
<stop offset="1" stop-color="#71B280"/>
</linearGradient>
</defs>
</svg>
