<svg width="21" height="22" viewBox="0 0 21 22" fill="none" xmlns="http://www.w3.org/2000/svg">
<path d="M10.4539 0.617676C5.86576 0.721297 5.34574 4.07363 6.32438 7.94024C6.17087 8.04386 5.85808 8.41229 5.9099 9.03018C6.06341 10.1643 6.52778 10.4732 6.78492 10.4732C6.88854 11.2465 7.25313 12.0601 7.61389 12.5763C7.87102 12.9371 7.96697 13.4015 7.96697 13.8658C7.96697 14.2784 7.97272 14.0155 7.92091 14.4799C7.8691 14.6296 7.79618 14.7658 7.706 14.8944C7.81154 15.2916 8.41983 17.1817 10.4999 17.1817C12.6299 17.1817 13.2018 15.1419 13.2632 14.8944C13.1672 14.7677 13.0905 14.6296 13.0329 14.4799C12.9811 13.9138 12.9715 14.1767 12.9715 13.7123C12.9715 13.2998 13.1327 12.9467 13.3399 12.6377C13.7007 12.1215 14.0499 11.2465 14.1535 10.4732C14.4644 10.4732 14.9249 10.1643 15.0286 9.03018C15.0804 8.41229 14.8367 8.04386 14.6294 7.94024C15.1456 6.49722 16.1166 2.01848 12.818 1.5541C12.4572 0.936215 11.588 0.617676 10.4539 0.617676ZM14.0768 15.5852C13.6642 16.6828 12.5724 18.1642 10.4999 18.1642C8.42559 18.1642 7.33756 16.7097 6.90773 15.6005C4.86601 16.8574 0.705811 17.2431 0.705811 21.6029H20.294C20.294 17.1318 16.153 16.8248 14.0768 15.5852Z" fill="white"/>
</svg>
