<svg width="37" height="37" viewBox="0 0 37 37" fill="none" xmlns="http://www.w3.org/2000/svg">
<path d="M0 18.5C0 8.28273 8.28273 0 18.5 0C28.7173 0 37 8.28273 37 18.5C37 28.7173 28.7173 37 18.5 37C8.28273 37 0 28.7173 0 18.5Z" fill="white"/>
<g clip-path="url(#clip0_311_4301)">
<path d="M18.5 35C27.6127 35 35 27.6127 35 18.5C35 9.3873 27.6127 2 18.5 2C9.3873 2 2 9.3873 2 18.5C2 27.6127 9.3873 35 18.5 35Z" fill="url(#paint0_linear_311_4301)"/>
<path fill-rule="evenodd" clip-rule="evenodd" d="M9.46914 18.3258C14.2792 16.2301 17.4867 14.8485 19.0916 14.181C23.6738 12.2751 24.6259 11.944 25.2465 11.9331C25.383 11.9307 25.6882 11.9645 25.8859 12.1249C26.0528 12.2604 26.0988 12.4434 26.1207 12.5718C26.1427 12.7002 26.1701 12.9927 26.1483 13.2213C25.9 15.8304 24.8256 22.1618 24.279 25.084C24.0477 26.3205 23.5922 26.7351 23.1513 26.7756C22.1932 26.8638 21.4656 26.1424 20.5375 25.534C19.0853 24.5821 18.2649 23.9895 16.8553 23.0606C15.2262 21.9871 16.2822 21.397 17.2106 20.4327C17.4536 20.1804 21.6754 16.3403 21.7571 15.992C21.7673 15.9484 21.7768 15.786 21.6803 15.7003C21.5839 15.6145 21.4415 15.6438 21.3387 15.6672C21.1931 15.7002 18.8731 17.2336 14.3789 20.2673C13.7204 20.7195 13.124 20.9398 12.5896 20.9283C12.0004 20.9156 10.8672 20.5952 10.0247 20.3213C8.99139 19.9854 8.17013 19.8079 8.24165 19.2374C8.27889 18.9403 8.68806 18.6364 9.46914 18.3258Z" fill="white"/>
</g>
<defs>
<linearGradient id="paint0_linear_311_4301" x1="18.5" y1="2" x2="18.5" y2="34.7553" gradientUnits="userSpaceOnUse">
<stop stop-color="#2AABEE"/>
<stop offset="1" stop-color="#229ED9"/>
</linearGradient>
<clipPath id="clip0_311_4301">
<rect width="33" height="33" fill="white" transform="translate(2 2)"/>
</clipPath>
</defs>
</svg>
