<svg width="37" height="37" viewBox="0 0 37 37" fill="none" xmlns="http://www.w3.org/2000/svg">
<path d="M34.2329 8.55603C28.6982 -0.000282597 17.398 -2.54405 8.6347 2.77474C0.101962 8.09353 -2.66541 19.6561 2.86934 28.2124L3.33057 28.9062L1.48565 35.8437L8.40408 33.9937L9.09593 34.4562C12.0939 36.075 15.3225 37 18.5511 37C22.0103 37 25.4696 36.075 28.4675 34.225C37.0003 28.6749 39.537 17.3436 34.2329 8.55603ZM29.39 26.3624C28.4675 27.7499 27.3145 28.6749 25.7002 28.9062C24.7777 28.9062 23.6246 29.3687 19.0124 27.5187C15.0919 25.6687 11.8633 22.6624 9.55716 19.1936C8.17347 17.5749 7.48163 15.4936 7.25101 13.4123C7.25101 11.5623 7.94286 9.94354 9.09593 8.78729C9.55716 8.32478 10.0184 8.09353 10.4796 8.09353H11.6327C12.0939 8.09353 12.5551 8.09353 12.7858 9.01854C13.247 10.1748 14.4001 12.9498 14.4001 13.1811C14.6307 13.4123 14.6307 13.8748 14.4001 14.1061C14.6307 14.5686 14.4001 15.0311 14.1694 15.2623C13.9388 15.4936 13.7082 15.9561 13.4776 16.1873C13.0164 16.4186 12.7858 16.8811 13.0164 17.3436C13.9388 18.7311 15.0919 20.1186 16.245 21.2749C17.6287 22.4311 19.0124 23.3561 20.6267 24.0499C21.0879 24.2812 21.5491 24.2812 21.7797 23.8187C22.0103 23.3561 23.1634 22.1999 23.6246 21.7374C24.0859 21.2749 24.3165 21.2749 24.7777 21.5061L28.4675 23.3561C28.9288 23.5874 29.39 23.8186 29.6206 24.0499C29.8512 24.7437 29.8512 25.6687 29.39 26.3624Z" fill="#FEFEFE"/>
<rect x="2" y="2" width="33" height="33" rx="16.5" fill="white"/>
<path d="M32.5321 9.63106C27.5957 1.99975 17.5172 -0.269019 9.70122 4.47477C2.09094 9.21855 -0.377259 19.5311 4.55914 27.1624L4.9705 27.7812L3.32504 33.9687L9.49553 32.3187L10.1126 32.7312C12.7865 34.175 15.666 35 18.5456 35C21.6308 35 24.7161 34.175 27.39 32.525C35.0003 27.5749 37.2628 17.4686 32.5321 9.63106ZM28.2127 25.5124C27.39 26.7499 26.3616 27.5749 24.9218 27.7812C24.099 27.7812 23.0706 28.1937 18.957 26.5437C15.4603 24.8937 12.5808 22.2124 10.524 19.1186C9.28985 17.6749 8.6728 15.8186 8.46712 13.9623C8.46712 12.3123 9.08417 10.8686 10.1126 9.83731C10.524 9.42481 10.8181 9.3245 11.3467 9.21855C11.7405 9.13963 11.9908 9.10193 12.3751 9.21855C12.8678 9.36807 13.2128 9.61798 13.4035 10.0436C13.5942 10.4691 14.6665 12.2111 14.8433 13.7561C14.8937 14.1967 14.9723 14.4548 14.8906 14.8906C14.8356 15.1842 14.7721 15.3457 14.6376 15.6124C14.4565 15.9716 14.0206 16.4374 14.0206 16.4374C14.0206 16.4374 13.4035 17.0561 13.6092 17.4686C14.4319 18.7061 15.4603 19.9436 16.4888 20.9749C17.7229 22.0062 18.957 22.8312 20.3967 23.4499C20.8081 23.6562 21.2195 23.6562 21.4252 23.2437C21.6308 22.8312 22.6593 21.7999 23.0706 21.3874C23.482 20.9749 23.6877 20.9749 24.099 21.1811L27.39 22.8312C27.8013 23.0374 28.2127 23.2437 28.4184 23.4499C28.6241 24.0687 28.6241 24.8937 28.2127 25.5124Z" fill="#57CE64"/>
</svg>
